{"title":"La.Folie.des.Grandeurs.1971.720p.BluRay.x264-Codres","uid":6100057,"size":5319933161,"categoryP":"video","categoryS":"hd___movies","magnet":"?xt=urn:btih:c11e298e84053931e92a49cbb49f9072c7946328&amp;dn=La.Folie.des.Grandeurs.1971.720p.BluRay.x264-Codres&amp;tr=udp%3A%2F%2Ftracker.openbittorrent.com%3A80&amp;tr=udp%3A%2F%2Fopen.demonii.com%3A1337&amp;tr=udp%3A%2F%2Ftracker.coppersurfer.tk%3A6969&amp;tr=udp%3A%2F%2Fexodus.desync.com%3A6969","seeders":3,"leechers":1,"uploader":"codres","files":3,"time":1294929683,"description":"My personal rip from the Bluray. Is an excellent comedy with Montand and Funes. You have english and romanian subtitles.\n &lt;a href=&quot;\nhttp://www.imdb.com/title/tt0067108/&quot; rel=&quot;nofollow&quot; target=&quot;_NEW&quot;&gt;\nhttp://www.imdb.com/title/tt0067108/&lt;/a&gt;\n\nUser Comments IMDB\n\n\nThis movie is a delightful parody of Victor Hugo's masterpiece 'Ruy Blas'. Alice Sapritch (the duegna to the Queen) is, as usual, magnificent. Louis de Funes and Yves Montand make a hilarious and exhilarating pair. Highly recommended. \n\nSpecifications:\nFormat                           : Matroska\nFile size                        : 4.95 GiB\nDuration                         : 1h 49mn\nOverall bit rate                 : 6 501 Kbps\n\nVideo\nID                               : 1\nFormat                           : AVC\nFormat profile                   : &lt;a class=&quot;__cf_email__&quot; href=&quot;/cdn-cgi/l/email-protection&quot; data-cfemail=&quot;f5bd9c929db5b9c1dbc4&quot;&gt;[email&amp;#160;protected]&lt;/a&gt;&lt;script cf-hash='f9e31' type=&quot;text/javascript&quot;&gt;\n/* &lt;![CDATA[ */!function(){try{var t=&quot;currentScript&quot;in document?document.currentScript:function(){for(var t=document.getElementsByTagName(&quot;script&quot;),e=t.length;e--;)if(t[e].getAttribute(&quot;cf-hash&quot;))return t[e]}();if(t&amp;&amp;t.previousSibling){var e,r,n,i,c=t.previousSibling,a=c.getAttribute(&quot;data-cfemail&quot;);if(a){for(e=&quot;&quot;,r=parseInt(a.substr(0,2),16),n=2;a.length-n;n+=2)i=parseInt(a.substr(n,2),16)^r,e+=String.fromCharCode(i);e=document.createTextNode(e),c.parentNode.replaceChild(e,c)}}}catch(u){}}();/* ]]&gt; */&lt;/script&gt;\nFormat settings, CABAC           : Yes\nFormat settings, ReFrames        : 4 frames\nDuration                         : 1h 49mn\nBit rate                         : 5 988 Kbps\nWidth                            : 1 280 pixels\nHeight                           : 688 pixels\nDisplay aspect ratio             : 1.860\nFrame rate                       : 24.000 fps\nBits/(Pixel*Frame)               : 0.283\nStream size                      : 4.56 GiB (92%)\nWriting library                  : x264 core 98 r1649 c54c47d\n\nAudio\nID                               : 2\nCodec ID                         : A_AC3\nDuration                         : 1h 49mn\nBit rate mode                    : Constant\nBit rate                         : 384 Kbps\nChannel(s)                       : 2 channels\nChannel positions                : Front: L R\nSampling rate                    : 48.0 KHz\nBit depth                        : 16 bits\nStream size                      : 300 MiB (6%)\nLanguage                         : French","torrent":{"xt":"urn:btih:c11e298e84053931e92a49cbb49f9072c7946328","amp;dn":"La.Folie.des.Grandeurs.1971.720p.BluRay.x264-Codres","amp;tr":["udp%3A%2F%2Ftracker.openbittorrent.com%3A80","udp%3A%2F%2Fopen.demonii.com%3A1337","udp%3A%2F%2Ftracker.coppersurfer.tk%3A6969","udp%3A%2F%2Fexodus.desync.com%3A6969"],"infoHash":"c11e298e84053931e92a49cbb49f9072c7946328","infoHashBuffer":{"type":"Buffer","data":[193,30,41,142,132,5,57,49,233,42,73,203,180,159,144,114,199,148,99,40]},"announce":[],"urlList":[]}}